<svg viewBox="0 0 64 64" xmlns="http://www.w3.org/2000/svg"><path d="m5.9 62c-3.3 0-4.8-2.4-3.3-5.3l26.7-52.5c1.5-2.9 3.9-2.9 5.4 0l26.7 52.5c1.5 2.9 0 5.3-3.3 5.3z" fill="#ff5a79"/><path d="m5.9 62c-3.3 0-4.8-2.4-3.3-5.3l26.7-52.5c1.5-2.9 3.9-2.9 5.4 0l26.7 52.5c1.5 2.9 0 5.3-3.3 5.3z" fill="#fff" transform="matrix(.6 0 0 .6 12.9 16.8)"/><g fill="#231f20" transform="matrix(.8 0 0 .8 6.4 9.6)"><path d="m27.8 23.6 2.8 18.5c.3 1.8 2.6 1.8 2.9 0l2.7-18.5c.5-7.2-8.9-7.2-8.4 0"/><ellipse cx="32" cy="49.6" rx="4.2" ry="4.2"/></g></svg>