<svg width="51" height="51" viewBox="0 0 51 51" fill="none" xmlns="http://www.w3.org/2000/svg">
<g filter="url(#filter0_d_3_13)">
<circle cx="25.5" cy="21.5" r="21.5" fill="white"/>
<path fill-rule="evenodd" clip-rule="evenodd" d="M24.4354 20.8929C25.1412 19.9022 25.0625 18.8589 24.5731 16.9822C23.6051 13.2706 23.9905 11.2362 27.3274 8.82766L28.956 7.65211L29.3499 9.62168C29.7686 11.7149 30.456 13.0095 32.2213 15.4997C32.2914 15.5987 32.2914 15.5987 32.3619 15.698C34.9046 19.2853 35.8333 21.4478 35.8333 25.375C35.8333 30.1391 31.0172 34.4167 25.5 34.4167C19.9825 34.4167 15.1667 30.1397 15.1667 25.375C15.1667 25.2859 15.1668 25.2886 15.1517 24.8951C15.035 21.8511 15.5978 19.4687 17.8754 16.8963C18.3566 16.3528 18.9036 15.8305 19.5191 15.3306L20.8779 14.2272L21.5316 15.851C22.0145 17.0508 22.5804 17.994 23.2197 18.6861C23.7611 19.2723 24.1628 20.0095 24.4354 20.8929ZM19.8095 18.6088C18.0563 20.589 17.6394 22.3533 17.7331 24.7961C17.7505 25.2509 17.75 25.2349 17.75 25.375C17.75 28.6402 21.3455 31.8333 25.5 31.8333C29.6542 31.8333 33.25 28.6397 33.25 25.375C33.25 22.0919 32.516 20.3827 30.2543 17.1919C30.1842 17.0931 30.1842 17.0931 30.1137 16.9937C28.7402 15.056 27.9215 13.7081 27.3798 12.2007C26.4952 13.2607 26.5472 14.315 27.0728 16.3303C28.0407 20.0419 27.6553 22.0763 24.3185 24.4848L22.4159 25.8582L22.2732 23.516C22.1821 22.0196 21.8434 21.0034 21.322 20.4389C20.8068 19.8811 20.3417 19.2281 19.9246 18.4811C19.8857 18.5236 19.8473 18.5661 19.8095 18.6088Z" fill="black"/>
</g>
<defs>
<filter id="filter0_d_3_13" x="0" y="0" width="51" height="51" filterUnits="userSpaceOnUse" color-interpolation-filters="sRGB">
<feFlood flood-opacity="0" result="BackgroundImageFix"/>
<feColorMatrix in="SourceAlpha" type="matrix" values="0 0 0 0 0 0 0 0 0 0 0 0 0 0 0 0 0 0 127 0" result="hardAlpha"/>
<feOffset dy="4"/>
<feGaussianBlur stdDeviation="2"/>
<feComposite in2="hardAlpha" operator="out"/>
<feColorMatrix type="matrix" values="0 0 0 0 0 0 0 0 0 0 0 0 0 0 0 0 0 0 0.25 0"/>
<feBlend mode="normal" in2="BackgroundImageFix" result="effect1_dropShadow_3_13"/>
<feBlend mode="normal" in="SourceGraphic" in2="effect1_dropShadow_3_13" result="shape"/>
</filter>
</defs>
</svg>
